# xmcd
#
# Track frame offsets: 
#        150
#        10259
#        22894
#        31697
#        43790
#        56314
#        66099
#        77164
#        87913
#        98862
#        109466
#        120795
#
# Disc length: 1760 seconds
#
# Revision: 0
# Processed by: cddbd v1.5.2PL0 Copyright (c) Steve Scherf et al.
# Submitted via: ExactAudioCopy v0.99pb4
#
DISCID=8706de0c
DTITLE=The Geezinslaw Brothers - Can You Believe
DYEAR=1966
DGENRE=Country
TTITLE0=Snook is the Only Town for Me
TTITLE1=The Best Guitar Picker
TTITLE2=I'm a Sucker for a Girl Like That
TTITLE3=Hard-Headed Me
TTITLE4=They Call Him Country
TTITLE5=Take Me Back to the Good Old Days
TTITLE6=You Wouldn't Put the Shuck on Me
TTITLE7=Talking Guitar Blues
TTITLE8=Four Kinds of Lonely
TTITLE9=Buy, Buy, Buy
TTITLE10=Women Do Funny Things to Me
TTITLE11=May the Bird of Paradise Fly Up Your Nose
EXTD=
EXTT0=
EXTT1=
EXTT2=
EXTT3=
EXTT4=
EXTT5=
EXTT6=
EXTT7=
EXTT8=
EXTT9=
EXTT10=
EXTT11=
PLAYORDER=
